<svg width="58" height="22" viewBox="0 0 58 22" xmlns="http://www.w3.org/2000/svg"><defs><radialGradient cx="94.555%" cy="50%" fx="94.555%" fy="50%" r="236.881%" gradientTransform="matrix(.36702 0 0 1 .599 0)" id="a"><stop stop-color="#FF00B8" offset="0%"/><stop stop-color="#9D00FF" offset="11.636%"/><stop stop-color="#0017FF" offset="24.623%"/><stop stop-color="#00FFEC" offset="34.981%"/><stop stop-color="#14CD00" offset="47.955%"/><stop stop-color="#FEFF00" offset="62.536%"/><stop stop-color="#FF7600" offset="75.227%"/><stop stop-color="red" offset="86.741%"/><stop stop-color="#FE00D7" offset="100%"/></radialGradient></defs><path d="M25.191 42.083c.062.654.238 1.13.527 1.426.29.297.62.456.993.476l-.125.594-1.103-.042c-.817-.024-1.797-.038-2.94-.044H20.2c-1.82.008-3.195.036-4.126.086l.124-.594c.703-.04 1.251-.124 1.644-.253s.672-.366.837-.713c.165-.347.227-.857.186-1.53l-.279-4.873h-6.078L9.5 40.686c-.496.674-.744 1.239-.744 1.694 0 .931.95 1.466 2.853 1.605l-.124.594-3.18-.076a73.663 73.663 0 00-1.224-.013c-.702 0-1.374.03-2.015.089l.124-.594c.579-.159 1.121-.476 1.628-.951l.33-.332c.472-.504 1.08-1.255 1.825-2.253l12.652-17.054.546.038c.248.014.459.021.632.021l.52-.015c.19-.01.4-.024.628-.044l1.24 18.688zm-7.138-5.978l-.383-7.061-5.39 7.061h5.773zm27.416 2.19c-.199.54-.438 1.357-.717 2.454a26.013 26.013 0 00-.776 3.83l-.92-.032c-1.142-.032-2.682-.05-4.62-.056l-4.167.003a355.2 355.2 0 00-7.558.085l.119-.598c.717-.04 1.255-.12 1.613-.24.358-.12.642-.349.851-.688.18-.29.355-.735.527-1.334l4.029-15.153.117-.532c.08-.403.122-.704.122-.904 0-.439-.145-.728-.434-.868-.288-.14-.811-.229-1.568-.269l.15-.598 1.168.044c1.121.03 2.614.046 4.477.046l1.975-.01a102.7 102.7 0 003.253-.08l-.15.598c-.737.04-1.28.12-1.628.24-.348.12-.627.349-.836.688-.18.29-.355.735-.527 1.333l-4.028 15.153-.118.518c-.1.468-.151.784-.151.948 0 .42.144.694.433.823.289.13.801.195 1.538.195h.538c1.155 0 2.355-.454 3.6-1.362 1.244-.907 2.255-2.319 3.031-4.234h.657zm17.316 0c-.2.54-.438 1.357-.717 2.454a26.013 26.013 0 00-.776 3.83l-.92-.032c-1.142-.032-2.682-.05-4.62-.056l-4.167.003a355.2 355.2 0 00-7.559.085l.12-.598c.717-.04 1.254-.12 1.613-.24.358-.12.642-.349.851-.688.21-.34.413-.888.612-1.646l3.943-14.84.117-.533c.082-.403.122-.704.122-.904 0-.439-.144-.728-.433-.868-.289-.14-.811-.229-1.568-.269l.15-.598 1.167.044c1.122.03 2.615.046 4.478.046l1.975-.01a102.7 102.7 0 003.252-.08l-.149.598c-.737.04-1.28.12-1.628.24-.348.12-.627.349-.836.688-.18.29-.355.735-.527 1.333l-4.029 15.153-.117.518c-.101.468-.151.784-.151.948 0 .42.144.694.433.823.288.13.801.195 1.538.195h.538c1.155 0 2.354-.454 3.6-1.362 1.244-.907 2.254-2.319 3.03-4.234h.658z" transform="translate(-5 -23)" fill="url(#a)" fill-rule="nonzero"/></svg>