<svg width="286" height="227" viewBox="0 0 286 227" xmlns="http://www.w3.org/2000/svg" preserveAspectRatio="none">
  <g fill="none" fill-rule="evenodd">
    <path fill="{% if path == 'looks' %}#E2FF00{% else %}#000{% endif %}" d="M286 0v126H1V0z"/>
    <path d="M285.5 226.5H.5V121.015c11.875-4.341 23.75-6.512 35.625-6.512 17.813 0 17.813 6.512 35.625 6.512 17.813 0 17.966-6.35 35.625-6.512 17.66-.161 17.813 5.86 35.625 5.86 17.813 0 17.813-5.86 35.625-5.86 17.813 0 17.813 5.86 35.625 5.86 17.813 0 17.66-6.024 35.625-5.86 11.977.11 23.852 2.28 35.625 6.512V226.5z" fill="{% if path == 'looks' %}#000{% else %}#E2FF00{% endif %}"/>
  </g>
</svg>