<?xml version="1.0" standalone="no"?>
<!DOCTYPE svg PUBLIC "-//W3C//DTD SVG 20010904//EN"
 "http://www.w3.org/TR/2001/REC-SVG-20010904/DTD/svg10.dtd">
<svg version="1.0" xmlns="http://www.w3.org/2000/svg"
 width="353.000000pt" height="353.000000pt" viewBox="0 0 353.000000 353.000000"
 preserveAspectRatio="xMidYMid meet">
<metadata>
Created by potrace 1.11, written by Peter Selinger 2001-2013
</metadata>
<g transform="translate(0.000000,353.000000) scale(0.100000,-0.100000)"
fill="#000000" stroke="none">
<path d="M1633 3519 c-194 -15 -382 -59 -556 -131 -54 -22 -96 -42 -94 -44 2
-2 39 3 83 11 270 52 804 103 804 78 0 -20 -193 -129 -265 -150 -22 -7 -75
-15 -117 -19 -49 -4 -75 -11 -71 -17 4 -6 -2 -8 -16 -4 -26 6 -141 -13 -141
-24 0 -4 -15 -7 -32 -7 -18 0 -45 -5 -59 -11 -15 -5 -30 -7 -33 -4 -3 3 -12 0
-21 -7 -8 -7 -21 -10 -30 -7 -8 4 -17 2 -20 -3 -4 -6 -17 -10 -30 -10 -13 0
-26 -4 -29 -9 -3 -4 -18 -6 -32 -3 -19 3 -25 1 -20 -7 5 -7 -3 -11 -22 -11
-16 0 -32 -3 -36 -7 -9 -9 -135 -42 -163 -42 -13 -1 -23 -5 -23 -11 0 -5 -11
-10 -25 -10 -14 0 -25 -4 -25 -9 0 -5 -18 -11 -41 -15 -56 -9 -112 -39 -134
-73 -10 -15 -26 -33 -34 -40 -23 -18 -1 -16 34 3 70 38 488 150 684 184 285
48 276 47 244 21 -26 -22 -71 -37 -258 -86 -245 -65 -447 -123 -500 -145 -11
-4 -49 -18 -85 -30 -36 -12 -78 -28 -95 -35 -16 -7 -57 -24 -89 -36 -55 -22
-63 -30 -113 -106 -116 -178 -210 -419 -248 -641 -14 -81 -20 -212 -10 -212 3
0 14 9 25 20 11 11 26 17 35 14 9 -4 27 6 46 24 17 17 38 28 45 25 8 -3 14 0
14 7 0 16 30 39 50 40 9 0 31 13 50 30 19 16 43 29 53 30 10 0 15 5 12 10 -3
6 23 24 59 40 36 17 69 36 73 43 4 6 42 29 83 49 41 21 121 62 177 92 55 30
103 52 106 49 3 -3 16 4 28 16 13 12 28 21 34 21 6 0 36 11 66 26 30 14 68 31
84 39 63 30 128 55 141 55 8 0 14 4 14 9 0 6 27 18 60 27 33 9 63 21 66 25 3
5 16 9 29 9 13 0 25 4 27 10 2 5 12 11 23 13 11 2 27 7 35 10 8 3 36 11 63 18
26 7 47 16 47 20 0 4 18 10 40 14 22 4 40 10 40 14 0 4 17 8 38 9 20 2 42 9
48 17 6 8 26 15 44 15 19 0 41 6 49 13 9 7 36 19 61 26 25 8 70 22 100 31 30
10 84 24 120 30 36 7 73 16 82 21 9 5 36 12 60 15 24 4 48 10 53 14 6 5 28 11
50 16 22 4 51 11 65 17 32 13 27 12 80 21 25 4 72 15 105 25 33 10 87 23 120
30 33 7 80 18 105 26 25 7 63 17 85 21 22 3 50 12 63 18 23 12 22 14 -51 83
-189 179 -528 348 -801 398 -78 14 -317 37 -360 34 -12 -1 -67 -5 -123 -10z"/>
<path d="M3015 2900 c-16 -5 -48 -14 -70 -20 -22 -7 -58 -14 -80 -17 -22 -3
-45 -9 -50 -14 -6 -4 -31 -11 -55 -15 -25 -4 -50 -11 -56 -16 -6 -4 -49 -18
-95 -29 -46 -11 -93 -24 -104 -29 -19 -9 -183 -55 -235 -67 -14 -3 -27 -9 -30
-12 -3 -4 -30 -14 -60 -23 -30 -9 -100 -32 -155 -53 -55 -20 -131 -48 -168
-61 -38 -14 -90 -34 -115 -46 -69 -30 -99 -43 -187 -78 -78 -31 -133 -54 -167
-71 -10 -5 -23 -9 -29 -9 -6 0 -17 -7 -25 -15 -9 -8 -23 -15 -33 -15 -10 0
-39 -11 -65 -25 -26 -14 -51 -25 -56 -25 -4 0 -48 -18 -97 -41 -158 -73 -297
-140 -323 -154 -14 -7 -59 -30 -100 -51 -41 -21 -77 -41 -80 -45 -3 -3 -15 -9
-27 -13 -13 -4 -23 -12 -23 -17 0 -5 -8 -9 -19 -9 -10 0 -24 -7 -31 -15 -7 -8
-16 -15 -21 -15 -15 0 -89 -34 -89 -42 0 -10 -80 -62 -128 -83 -23 -11 -42
-21 -42 -25 0 -3 -16 -14 -35 -24 -19 -11 -35 -22 -35 -26 0 -4 -15 -14 -32
-21 -18 -7 -42 -21 -52 -31 -11 -10 -24 -18 -29 -18 -15 0 21 -261 38 -279 3
-2 13 3 23 12 10 10 22 17 26 17 4 0 24 17 44 38 20 20 51 46 67 56 17 11 34
25 38 33 4 7 12 13 17 13 8 0 40 25 81 63 10 9 23 17 29 17 5 0 20 11 34 25
14 14 32 25 41 25 8 0 15 5 15 10 0 6 11 15 25 20 14 5 31 14 38 20 57 46 76
60 86 60 7 0 14 7 17 15 4 8 16 15 29 15 13 0 25 7 29 15 3 8 12 15 19 15 8 0
20 7 27 16 8 8 27 22 44 30 44 21 76 40 89 53 6 6 19 11 29 11 10 0 18 4 18 9
0 5 10 13 22 17 12 3 28 13 36 20 7 8 21 14 31 14 9 0 21 4 27 9 21 22 477
251 498 251 4 0 28 9 54 21 26 11 63 27 82 35 19 8 43 19 52 24 10 6 26 10 37
10 11 0 21 3 23 8 2 4 28 15 58 26 30 10 69 24 85 31 17 7 53 21 80 30 28 9
59 21 70 25 11 4 49 18 85 30 36 12 74 26 85 30 41 18 116 40 135 40 11 0 20
5 20 10 0 6 11 10 24 10 13 0 40 7 59 15 20 8 48 15 62 15 14 0 25 4 25 8 0 4
43 18 95 31 52 13 97 27 101 32 3 5 18 9 34 9 16 0 44 6 62 14 31 13 164 48
253 65 45 9 75 21 75 29 0 3 -19 29 -41 59 -44 57 -63 62 -134 43z"/>
<path d="M3371 2436 c-9 -11 -29 -16 -62 -16 -27 0 -49 -4 -49 -10 0 -5 -9
-10 -19 -10 -10 0 -38 -9 -62 -20 -24 -11 -57 -20 -72 -20 -16 0 -26 -4 -22
-10 4 -6 -6 -10 -23 -10 -16 0 -43 -7 -58 -15 -16 -8 -41 -15 -56 -15 -14 0
-28 -4 -30 -10 -1 -5 -12 -11 -23 -13 -11 -2 -30 -8 -41 -15 -12 -6 -40 -14
-63 -18 -22 -4 -41 -10 -41 -15 0 -5 -11 -9 -24 -9 -14 0 -28 -4 -31 -10 -3
-5 -16 -10 -28 -10 -12 0 -37 -9 -55 -20 -18 -11 -44 -20 -57 -20 -14 0 -25
-4 -25 -10 0 -5 -11 -10 -25 -10 -14 0 -28 -7 -31 -15 -4 -9 -19 -15 -35 -15
-17 0 -32 -6 -35 -15 -4 -8 -13 -15 -21 -15 -24 0 -117 -33 -131 -47 -7 -7
-24 -13 -38 -13 -13 0 -24 -4 -24 -10 0 -5 -13 -10 -30 -10 -20 0 -30 -5 -30
-15 0 -10 -10 -15 -30 -15 -16 0 -30 -4 -30 -10 0 -5 -11 -10 -24 -10 -13 0
-29 -7 -36 -15 -7 -8 -21 -15 -32 -15 -10 0 -21 -7 -24 -15 -4 -9 -19 -15 -35
-15 -16 0 -29 -4 -29 -10 0 -5 -11 -10 -25 -10 -14 0 -28 -7 -31 -15 -4 -8
-17 -15 -30 -15 -15 0 -24 -6 -24 -15 0 -10 -10 -15 -30 -15 -16 0 -30 -4 -30
-9 0 -5 -10 -13 -22 -17 -12 -3 -28 -13 -36 -20 -7 -8 -22 -14 -33 -14 -10 0
-19 -4 -19 -10 0 -5 -11 -10 -25 -10 -16 0 -25 -6 -25 -15 0 -10 -10 -15 -29
-15 -16 0 -31 -6 -35 -15 -3 -8 -14 -15 -25 -15 -10 0 -21 -7 -25 -15 -3 -8
-14 -15 -24 -15 -10 0 -29 -11 -42 -25 -13 -14 -30 -25 -37 -25 -8 0 -16 -7
-19 -15 -4 -9 -19 -15 -35 -15 -16 0 -29 -4 -29 -10 0 -5 -11 -12 -25 -16 -14
-3 -25 -12 -25 -20 0 -8 -7 -14 -15 -14 -8 0 -24 -9 -35 -20 -11 -11 -26 -20
-33 -20 -7 0 -20 -9 -30 -20 -9 -11 -23 -20 -30 -20 -8 0 -19 -11 -25 -25 -9
-19 -19 -25 -42 -25 -19 0 -30 -5 -30 -14 0 -7 -9 -16 -21 -19 -11 -3 -23 -15
-26 -26 -3 -14 -13 -21 -28 -21 -15 0 -26 -8 -30 -20 -3 -11 -13 -20 -20 -20
-8 0 -20 -8 -27 -18 -7 -10 -25 -22 -40 -25 -17 -5 -28 -15 -30 -29 -2 -13
-11 -24 -21 -26 -10 -2 -29 -14 -42 -28 -13 -13 -29 -24 -35 -24 -5 0 -10 -6
-10 -14 0 -7 -13 -19 -29 -26 -16 -6 -31 -20 -34 -31 -3 -11 -14 -19 -25 -19
-14 0 -22 -8 -24 -23 -2 -13 -11 -23 -24 -25 -12 -2 -26 -14 -32 -28 -7 -13
-15 -24 -20 -24 -13 0 -54 -37 -52 -47 1 -4 -7 -10 -16 -12 -21 -4 -39 -21
-40 -38 -2 -29 -5 -33 -19 -33 -24 0 -18 -20 26 -77 78 -104 171 -203 195
-209 13 -3 24 -12 24 -19 0 -35 212 -196 363 -275 250 -131 485 -196 752 -207
197 -8 445 18 445 48 0 5 13 23 30 39 16 16 30 36 30 43 0 8 12 27 28 44 15
16 34 38 44 49 24 28 65 64 72 64 4 0 12 5 19 10 73 63 385 230 572 305 39 15
84 33 100 40 17 7 53 21 80 30 57 19 77 34 106 82 35 56 50 59 -246 -57 -173
-68 -270 -108 -353 -147 -29 -13 -58 -23 -64 -21 -12 4 60 88 75 88 5 0 17 8
26 18 15 16 47 39 96 69 39 23 86 42 120 49 19 3 35 10 35 14 0 4 12 10 28 13
28 6 192 54 227 67 11 4 46 15 77 24 67 20 80 35 142 168 73 159 125 346 146
533 18 149 2 435 -31 558 -8 30 -14 37 -34 37 -14 0 -25 -4 -25 -9 0 -4 -23
-11 -52 -14 -28 -4 -54 -10 -57 -15 -3 -5 -19 -12 -36 -15 -64 -13 -125 -32
-125 -39 0 -5 -12 -8 -28 -8 -15 0 -36 -6 -47 -14 -11 -7 -36 -17 -55 -21 -19
-4 -41 -11 -50 -16 -8 -5 -35 -15 -60 -23 -25 -8 -70 -25 -100 -37 -30 -12
-68 -24 -83 -26 -16 -3 -31 -12 -34 -19 -3 -8 -18 -14 -34 -14 -16 0 -29 -4
-29 -10 0 -5 -8 -10 -17 -10 -19 0 -129 -42 -140 -54 -3 -3 -13 -6 -20 -6 -8
0 -21 -7 -29 -15 -9 -8 -26 -15 -38 -15 -13 0 -29 -7 -36 -15 -7 -8 -18 -15
-26 -15 -18 0 -148 -61 -152 -71 -2 -5 -13 -9 -24 -9 -10 0 -26 -7 -34 -15 -9
-8 -24 -15 -35 -15 -10 0 -19 -4 -19 -8 0 -4 -23 -16 -51 -27 -28 -11 -55 -26
-61 -32 -6 -7 -18 -13 -28 -13 -10 0 -23 -7 -30 -15 -7 -8 -16 -15 -20 -15
-13 0 -205 -112 -208 -122 -2 -4 -11 -8 -20 -8 -10 0 -29 -11 -44 -25 -15 -14
-32 -25 -38 -25 -6 0 -13 -7 -16 -15 -4 -8 -17 -15 -30 -15 -14 0 -27 -7 -30
-15 -4 -8 -12 -15 -20 -15 -7 0 -24 -9 -36 -21 -40 -35 -127 -99 -137 -99 -5
0 -19 -11 -32 -25 -13 -13 -29 -25 -35 -25 -7 0 -19 -11 -28 -25 -9 -14 -22
-25 -29 -25 -7 0 -19 -9 -27 -20 -8 -11 -18 -20 -23 -20 -4 0 -28 -20 -52 -44
-24 -25 -58 -52 -74 -61 -17 -8 -31 -20 -31 -25 0 -10 -56 -66 -89 -90 -12 -8
-21 -20 -21 -27 0 -7 -5 -13 -10 -13 -13 0 -100 -88 -100 -101 0 -5 -11 -9
-24 -9 -18 0 -25 -8 -32 -32 -5 -18 -19 -37 -31 -43 -12 -5 -27 -20 -32 -33
-12 -24 -39 -25 -32 -1 4 19 9 43 10 52 1 4 8 7 16 7 9 0 15 9 15 25 0 15 9
31 23 40 13 8 32 33 43 55 10 22 24 40 30 40 6 0 14 14 18 30 3 19 15 34 30
41 14 7 32 26 40 43 9 17 16 27 16 22 0 -15 40 32 40 47 0 8 11 19 25 25 14 7
28 19 31 27 4 8 12 15 20 15 8 0 14 5 14 11 0 15 39 49 57 49 7 0 13 6 13 13
0 7 14 23 30 35 16 13 30 29 30 37 0 8 9 15 20 15 12 0 25 10 32 25 7 16 19
25 35 25 16 0 23 6 23 18 0 11 11 24 25 30 14 7 28 19 31 27 4 8 17 15 30 15
13 0 24 5 24 11 0 16 26 39 44 39 9 0 16 7 16 15 0 8 5 15 10 15 19 0 25 4 43
27 10 13 25 23 32 23 8 0 19 8 24 19 6 10 24 21 41 24 22 5 30 12 30 28 0 15
5 19 15 15 8 -3 23 2 32 12 10 9 40 28 67 42 26 14 50 31 53 38 3 6 16 12 29
12 15 0 24 6 24 15 0 9 9 15 25 15 16 0 25 6 25 15 0 8 9 15 19 15 11 0 26 7
35 15 8 8 21 15 30 15 8 0 27 12 43 26 15 14 40 28 55 31 15 3 28 9 28 13 0 4
12 11 27 15 22 5 24 8 12 16 -11 8 -9 9 7 4 14 -3 28 1 38 11 10 9 20 14 23
11 9 -10 44 13 38 24 -4 5 8 9 24 9 17 0 31 5 31 11 0 6 9 8 21 4 15 -5 19 -4
15 4 -4 7 0 11 11 11 11 0 24 5 31 12 7 7 12 8 12 4 0 -5 7 -2 16 5 9 7 23 14
32 16 9 1 18 7 20 12 2 6 15 11 28 11 14 0 23 4 20 9 -3 5 10 12 29 15 19 4
35 11 35 15 0 4 14 8 32 9 18 0 38 8 44 16 6 9 21 16 33 16 11 0 21 4 21 9 0
5 20 12 45 15 25 4 45 11 45 17 0 5 16 9 35 9 20 0 37 6 43 15 5 10 24 17 50
18 23 0 42 5 42 9 0 4 7 8 16 8 8 0 34 8 57 19 23 10 67 24 97 31 30 7 69 19
87 26 17 8 42 14 56 14 14 0 29 5 32 10 3 6 19 10 34 10 15 0 32 5 37 10 6 6
34 13 62 17 61 7 64 18 29 97 -20 43 -24 47 -36 32z m-891 -386 c0 -5 -4 -10
-10 -10 -5 0 -10 5 -10 10 0 6 5 10 10 10 6 0 10 -4 10 -10z m-62 -15 c-2 -5
-9 -9 -15 -9 -7 1 -11 -2 -8 -6 8 -12 -11 -21 -29 -14 -22 8 -20 19 7 32 26
13 49 11 45 -3z m-88 -15 c0 -5 -4 -10 -10 -10 -5 0 -10 5 -10 10 0 6 5 10 10
10 6 0 10 -4 10 -10z m-7 -31 c-18 -5 -33 -14 -33 -19 0 -5 -7 -7 -15 -4 -8 4
-21 1 -29 -5 -7 -6 -21 -9 -30 -5 -10 4 -16 1 -16 -8 0 -17 -26 -33 -68 -43
-18 -3 -30 -11 -26 -16 3 -5 1 -9 -4 -9 -12 0 -24 29 -16 41 3 5 14 9 25 9 10
0 19 5 19 10 0 6 14 10 30 10 19 0 33 6 37 16 3 8 12 13 19 10 8 -3 20 1 26 9
8 9 32 14 63 14 48 -1 49 -1 18 -10z m-245 -101 c-4 -18 -30 -37 -50 -38 -10
0 -32 -9 -50 -20 -39 -24 -55 -25 -73 -6 -12 12 -12 15 0 20 8 3 17 1 20 -4 7
-11 85 27 98 48 10 16 58 16 55 0z m-184 -93 c-7 -17 -7 -17 -28 -9 -24 9 -19
24 9 24 18 0 23 -4 19 -15z m-63 -27 c-9 -26 -36 -31 -37 -8 -1 23 5 30 26 30
16 0 18 -4 11 -22z m-58 -14 c6 -6 -16 -34 -27 -34 -3 0 -6 9 -6 20 0 19 20
27 33 14z m-49 -39 c-4 -8 -9 -15 -13 -15 -4 0 -8 7 -8 15 0 8 6 15 13 15 8 0
11 -6 8 -15z m-64 -25 c8 -5 11 -10 5 -10 -5 0 -17 5 -25 10 -8 5 -10 10 -5
10 6 0 17 -5 25 -10z m-56 -27 c-5 -5 -12 -12 -16 -18 -4 -6 -8 -2 -8 8 0 9 7
17 17 17 9 0 12 -3 7 -7z m-44 -55 c0 -5 -4 -8 -10 -8 -5 0 -10 10 -10 23 0
18 2 19 10 7 5 -8 10 -18 10 -22z m-45 2 c-28 -12 -37 -12 -30 0 3 6 16 10 28
9 21 0 21 -1 2 -9z"/>
</g>
</svg>
